<?xml version="1.0" encoding="utf-8"?>
<!-- Generator: Adobe Illustrator 20.1.0, SVG Export Plug-In . SVG Version: 6.00 Build 0)  -->
<svg version="1.1" xmlns="http://www.w3.org/2000/svg" xmlns:xlink="http://www.w3.org/1999/xlink" x="0px" y="0px"
	 viewBox="0 0 110 110" style="enable-background:new 0 0 110 110;" xml:space="preserve">
<style type="text/css">
	.st0{fill:none;}
	.st1{fill:#424242;}
</style>
<g id="Layer_1">
</g>
<g id="Layer_2">
	<rect class="st0" width="110" height="110"/>
	<g>
		<path class="st1" d="M50.3,44.4c-0.8-0.5-2.1-1.1-2.4-0.8c-0.3,0.3,0,1.2,1.8,2.2s1.9,2.6,5.7,2.3c3.7-0.3,7.7-1.3,6.7-2.3
			c-1-1-6.5,1.3-8.1,0.7C52.2,45.8,50.3,44.4,50.3,44.4z"/>
		<path class="st1" d="M82,48.8c-1.5-6.1-5.4-11.9-10-12.9c-4.6-1-11.2,0.3-11.2,0.3s3-4.5,3.1-6.1c0.1-1.6,1.2-1.6-1-2.1
			c-2.3-0.6-3.5-1.4-4.2-0.5c-0.7,0.9-3.3,4.5-3.8,6.1c-0.5,1.6-0.3,3.2-1,1.9c-0.7-1.4-2.5-4.3-3.8-5.7c-1.3-1.4-4.6-0.5-2.9,0.6
			c1.7,1.1,4.7,3.7,5.2,5.2c0.5,1.5,0.8,2.6-0.3,3.1c-1,0.5-4.6-0.1-5.8-1c-1.2-1-3-3-3.4-5.2c-0.4-2.3-0.6-4.4-1-5
			c-0.5-0.6-0.5-1.3,0-1.5c0.5-0.2,5-0.7,7.2,0c2.2,0.7,3.5,1.4,4.4,3.5c0.4,0.9-0.1,2.2,0.9,2.1c1-0.1,2-0.8,0.6-3.3
			c-1.4-2.5-3.9-4.8-8.4-4.8c-4.5,0-3.9,0.6-5.5-0.2c-1.7-0.8-3.2-1.4-3.9-0.2c-0.7,1.2,0.6,1.1,1.8,2.6c1.2,1.4,2.3,6.4,2.3,7.4
			c0,1,0.2,1.4-0.2,1.5c-0.4,0.1-5.5,1.3-8.3,4.6c-2.8,3.2-4.7,10.3-5.2,15.8c-0.5,5.5,0.2,14.3,4.9,22.3c4.7,8,8.8,10.3,13,10.4
			c4.2,0.1,8.6-0.8,10.2-1.9c1.7-1.1,3.1-2.5,3.8-1.9c0.7,0.6,6.3,3.4,9,2.2c2.7-1.2,8.5-8.1,10.6-14.5C81.1,65,83.5,54.8,82,48.8z
			 M79.1,62.6c-1.2,8.6-7,17.3-10.7,19.8c-3.7,2.5-8.1-1.4-10.4-2.5c-2.3-1.1-5.8,0.2-7.6,0.9c-1.8,0.7-1.4,2.8-1.1,3.7
			c0.3,0.9-1.2,0.5-3,0.3c-1.8-0.2-6.8-1.7-11.6-9s-4.8-17.9-2.8-26.9s8.1-11.4,9.7-11.5c1.6-0.1,5.8,2.4,6.9,3.4
			c1.7,1.5,4.8-0.3,4.9,0.6c0.1,0.9-0.4,2,2.4,2.7c2.8,0.7,3.9-3.2,4.1-4.2c0.2-1,2.3-0.5,4.9-1.2c2.6-0.7,6.1-1.2,10.8,2.8
			C80.2,45.5,80.2,53.9,79.1,62.6z M69.1,43.3c-0.7,0.3,1.4,1.3,3,2.6c1.7,1.3,2.6,3.9,2.6,5c0,1-0.6,3.6,0.1,3.8
			c0.6,0.2,1.8-2.1,1.4-4.6S72.5,41.7,69.1,43.3z"/>
	</g>
</g>
<g id="Layer_2_copy">
	<rect x="150" y="0" class="st0" width="110" height="110"/>
	<path class="st1" d="M190.7,34.1c1-0.1,1.8-0.7,1.7-1.4c-0.1-0.8-0.9-0.8-2.2-0.3c-1.3,0.4-2.1,0.9-1.8,1.3
		C189.2,34.6,189.7,34.2,190.7,34.1z M190.6,40.9c0.7,0.7,2.3-0.2,3.4-0.4c1.1-0.2,1.5-0.7,1-1.5c-0.5-0.9-2.1-0.4-3.1,0.1
		C190.9,39.6,190.2,40.5,190.6,40.9z M226,43.9c0.6-3.4-3.3-5.4-3.3-5.4l1.7-6.3c0,0,0.6,0,1.5-0.8c1-0.8,2.5-2.5,1.5-5
		c-1-2.4-5.3-1-5.3-1c-1.8-1.8-4-0.3-4.4,2.2c-0.4,2.5,2,4.3,2,4.3l-1.8,5.3c-0.7,0.1-3.1,1-3.1,1s-0.8-1-1.5-1.4
		c-0.8-0.4-0.3-1.4-0.2-2.3c0.1-0.9,0.4-3.4,0.8-4.6c0.3-1.2-2.5-0.9-3.1-0.9c-0.5,0,0.1-2.6,0.6-4c0.4-1.3-1-1.9-1.9-1.9
		c-0.9,0-3.7,0-4.3,0.2c-0.5,0.2,0,6.3,0,6.3s-0.7-0.9-0.8-1.7c-0.1-0.8-1.9-0.2-3.2,0.1c-1.3,0.3-0.3,1.5-0.1,3.6
		c0.2,2.1,0.6,4.5,0.6,4.5s-0.9,0.3-1.5,1.1c-0.7,0.8-0.3,2.2-0.3,2.2s-3.4-10.6-4.2-14.2c-0.8-3.6-2.5-4.3-4.5-4.3
		s-5.5,1.5-7.8,2.9s-0.6,5.9,0.8,10.6s3.5,11.3,3.5,11.3l-0.7-0.2c0,0-1.4-1.1-3.2-0.5c-1.8,0.5-0.8,2.4-0.2,4.6
		c0.5,2.2,1.4,4.2,2.5,5.2c1.1,1,0.7,2.3,0.6,3c0,0-1.3,2.4-1.9,4.8c-0.5,2.4-1,3.9-0.8,5c0.2,1.1,3.3,3.9,4.5,5.4
		c1.2,1.5-0.8,4.7-2,8.6c-1.2,3.9-1.7,5.5-0.9,6.5c0.8,1,4.6-0.2,7.7-0.3c3.1-0.1,4.8,0.3,9.7,0.8c4.8,0.4,9.8,0.3,12.9,0.3
		c3.1,0,8.7-0.7,10-1.2c1.3-0.6,0.3-8.4,0-11.4c-0.3-3.1-0.7-6.7-1.9-7.8c-1.2-1.1,0-1.5,1-2.8s1.3-1.4,1.2-3.5
		c-0.1-2.1,0.2-12.2,0.8-14.6C227.6,45.1,226,43.9,226,43.9z M221.1,32.9c0.3-1.2,1.1-1.8,0.2-2.3c-0.9-0.6-2.5-2-1.4-3
		c1.1-1,1.4-0.4,2.1,0.3c0.7,0.8,1.2-0.3,2-0.7c0.8-0.3,3.5,0.1,2.4,1.5c-1.1,1.4-3.3,1.2-3.6,2.1c-0.3,0.9-1.3,4.6-1.5,5.8
		c-0.2,1.2-0.3,1.3-0.8,1.3c-0.4,0-0.9-0.3-0.9-0.3S220.7,34.1,221.1,32.9z M215.9,40.9c2.6-1.5,5-0.7,5.8-0.4
		c0.9,0.2,1.7,1,1.7,2.1c0,1.1,0,2.8-0.8,2.3c-0.8-0.4-1.1-1.2-2.6-0.1c-1.5,1.1-3.3,3.4-4.1,2.9c-0.8-0.5-2.4-2.3-2.8-2.6
		C212.5,44.4,213.3,42.5,215.9,40.9z M202.6,30.2c0.6-0.2,0.9-0.4,1.2,0.9c0.3,1.3,0,2,1.2,2c1.2,0,2,0.4,2-1.5s-0.8-6.2,0-6.2
		c0.8,0,3-0.7,2.4,0.9c-0.6,1.5-1.2,5-0.4,5.1c0.8,0.1,3.3-0.9,3.1,0.1c-0.2,1-0.4,4.6-1.1,4.6c-0.7,0-7.9-0.1-7.9-0.1
		S202,30.5,202.6,30.2z M200.6,41.1c0.6-1.2,1-2.5,2.3-2.5s6.5,0.2,8,0.4c1.5,0.2,2.4,0.1,1.9,0.7c-0.5,0.6-2.2,1.3-1.9,3.4
		c0.3,2.1,1.1,1.8-0.2,3c-1.3,1.2-2.2,3.4-3.6,2.5c-1.4-0.9-5-3.9-5.9-3.5C201.2,45.1,200.1,42.3,200.6,41.1z M185.1,28
		c0.1-1.7,0.4-2.5,2.1-3.2c1.7-0.7,4.2-1.5,5.1-0.8c0.9,0.8,2.5,6.4,3.7,9.9c1.2,3.5,3.7,11.4,3.5,11.9c-0.2,0.4-1.7,1.8-2.1,1.3
		c-0.4-0.4-2.2-3.1-3.6-2.3c-1.4,0.8-3.5,2.8-4.3,2.4c0,0-0.4-2.8-1.2-5.9C187.5,38.2,185,29.7,185.1,28z M223.9,62.8
		c-0.3,0.8-2.1,1.9-3,3c-0.9,1.1-1,1.1-1.2,1.9c-0.2,0.8-0.2,0.8-0.2,0.8s-2.1-0.1-2,0.3c0.1,0.4,0.9,0.9,2.4,1.4
		c1.5,0.5,2.8,1.2,3,2.2c0.2,1,0.7,6.5,0.9,7.4c0.2,0.9,1.1,5.3,0.4,5.5c-0.7,0.2-4.2,1.1-6.8,1.2c-2.6,0.1-8,0-10.7-0.2
		c-2.6-0.2-7.9-0.2-10.5-0.7c-2.5-0.4-2.6-0.5-4.7-0.3c-2.1,0.2-4,1.1-3.7,0.2c0.2-0.9,2.4-7.8,3.1-9.6c0.7-1.8,0-1.7,2.1-2.8
		c2.1-1.1,4.4-2,4.7-2.5c0.3-0.6-0.1-0.9-1.3-0.3c-1.2,0.6-3,1.7-3.9,2c-0.9,0.3-1.7,0.3-2.3-0.4c-0.7-0.8-2.6-3.1-3-3.5
		s-1.9-1.5-1.2-3.1c0.7-1.5,2.3-7.5,2.9-8.1c0.6-0.7,0.3-1.8,2.1-1.1c1.8,0.7,4.4,1.5,5.2,1.5s1.2-0.5,0.2-1.2
		c-1-0.7-2.8-1.1-4.8-1.7c-2.1-0.6-3.5-0.8-4.1-1.4c-0.6-0.7-1.8-3.5-1.8-3.5c-0.4-0.9-1.5-2.6-0.4-2c1.1,0.7,3.1,3.5,4.3,3.1
		c1.2-0.4,2-1.8,3.3-2.6c1.3-0.9,1.3-0.9,2.4,0.7c1.1,1.5,1.8,2.9,2.6,1.9c0.9-1,2.9-3.6,3.9-2.4c1,1.2,4.7,4.3,5.7,3.5
		c1-0.8,4.3-5.1,5.3-3.9c1,1.2,2.3,4,3.6,3.1c1.3-0.9,4.4-4.7,5.2-4c0.8,0.8,2.4,2.3,2.4,3.3C224,51.4,224.3,62,223.9,62.8z
		 M207.1,43.4c1.7,0.1,1.1-0.8,1.1-1.3c0-0.6-1.7-0.6-2.9-0.6c-1.2,0-1.4,0.2-1.4,1.1C203.9,43.3,205.5,43.3,207.1,43.4z
		 M217.3,45.2c0.5-0.3,0.2-1-0.7-1.4c-0.9-0.4-1.3,0.2-1.2,0.7C215.7,45.6,216.8,45.5,217.3,45.2z M217.9,43.4
		c0.7-0.1,0.7-0.6,0.3-1.2c-0.3-0.7-0.8-0.7-1.5-0.4c0,0-0.3,0.9-0.2,1.2C216.6,43.2,217.2,43.5,217.9,43.4z M220.8,43.4
		c0.7,0.1,1.1-0.7,1.1-1.1c0-0.4-1-0.9-1.4-0.6C220,42.3,220.1,43.4,220.8,43.4z M213.7,53.3c-1.3,0-4.1-0.2-6.2-0.3
		s-1.2,2.3-1.2,4.7c0,0-0.4,6.7-0.2,8.8s1.1,0.9,4,1.2c2.9,0.2,4.6,0.7,5.8,0.6s1.1-2.8,1-5s0-5.8,0.2-7.8
		C217.2,53.3,215,53.3,213.7,53.3z M215.2,56.6c0,0.8-0.2,2-0.2,3.3c-0.1-0.3-0.7-0.5-1.7-0.6c-1.3-0.1-2.9-0.1-3.5-0.2
		c-0.7-0.1-1.3,0.1-1.3,0.6c0,0.9,1.8,0.5,3.5,0.6c1.7,0.1,2.3,0.5,2.9,0c0.1-0.1,0.1-0.1,0.2-0.2c0,0.8-0.1,1.5-0.1,2.3
		c0,2,0.6,4-0.2,4c-0.8,0-2.5-0.3-3.7-0.3s-3.3,0.4-3.3-0.6s0.2-9.5,0.2-9.5c0-0.3-0.1-1,0.7-1s4.6,0.3,5.4,0.3
		C214.8,55.2,215.3,55.2,215.2,56.6z M210.8,57.1c0.1,0.3,0.9,0.7,2.1,0.9c1.2,0.2,1.2-0.8,1.2-0.8s-1.3-1-2.3-1
		S210.8,56.8,210.8,57.1z M211.5,62.7c0.9,0.1,1.8-0.1,2.7-0.3s-0.3-0.7-1.2-0.7s-2-0.2-2.9-0.2c-0.9,0-1.2,0.2-1.2,0.6
		C209,62.6,210.6,62.7,211.5,62.7z M211.1,65.6c2.4,0,2.9-0.2,3.1-0.7s-2.8-1-4-1s-1.8,0.5-1.7,0.9
		C208.5,65.5,208.7,65.6,211.1,65.6z"/>
</g>
<g id="Layer_2_copy_3">
	<rect x="300" y="0" class="st0" width="110" height="110"/>
	<path class="st1" d="M389,74.2c-1.4-0.5-1.6-0.4-2.3-2.6c-0.7-2.2,1-4.3,1.6-5c0.6-0.7,0.8-1.2,0.8-2.7c0-1.4-2.5-6.4-7.4-17.8
		s-8.1-18.6-10.8-24.5c-2.7-5.9-3-6-5.6-6.5c-2.6-0.5-4.7-0.1-7.5,0.7c-2.7,0.7-7.8,2.6-11.6,4c-3.7,1.4-8.9,3.4-10,4.1
		c-1.1,0.7-3.3,2-6.5,3.3s-5.5,2.7-7.5,4.3c-2,1.6-2.7,8.4-2.8,11.3c-0.1,2.8,1.4,6.7,1.4,6.7c1.2,2.9,3.9,7.6,6.3,11.6
		c2.4,4,3.7,6.8,7.2,13.5c3.4,6.7,9.2,17.7,10.9,19.6c1.7,1.8,6.5,0.1,11.1-1.4s8.7-3.4,10.5-4.1c1.8-0.7,4.6-1.5,10.4-4.6
		c5.9-3.1,11.7-6.1,12.6-7.3C390.9,75.5,390.4,74.7,389,74.2z M323.7,48.5c-0.5-0.6-1.6-3.4-1.3-6.8c0.3-3.4,0.8-5.9,1.2-6
		c0.3-0.1,1.2,2.8,1.8,4.2c0.6,1.4,0.9,1.7,0.5,2.3c-0.5,0.5-1.5,3-1.8,4.4C323.8,47.8,324.2,49,323.7,48.5z M329.1,56.1
		c-0.2,1.5,0,3.4-0.4,3.1c-0.4-0.3-1.8-3.2-2.3-3.9c-0.5-0.7-0.7-1.9-0.5-2.3s0.7,0.2,0.9,0.7c0.2,0.5,1.4,1.5,2.3-0.2
		c0.9-1.7,0.5-3-0.1-3.5c-0.7-0.5-2-0.1-2.5,0.4c0,0,0-1.4,0.6-3c0.6-1.5,0.8-2.3,1.2-1.5s2.5,4.4,2.5,5c0.1,0.6,0.1,0.8-0.3,1.1
		C330.2,52.4,329.3,54.6,329.1,56.1z M343.9,82.8c-0.5,0.7-0.2,1.8-0.4,2.5s-0.4-0.1-1-1.4c-0.6-1.3-3.5-5.8-5.8-10
		c-2.3-4.1-4.6-8.5-5.5-10.1c-0.8-1.5-0.7-2.2-0.6-2.9c0.1-0.7,0.5-4.4,0.8-5.6c0.2-1.2,0.7-1.4,0.8-1.2c0.7,0.8,2.6,4.4,4.2,7.9
		c1.6,3.6,7.2,16.7,7.9,18.3C345.1,81.9,344.4,82.1,343.9,82.8z M374.5,82.5c-6.7,3.1-11.1,5.3-16.4,7.3c-5.2,2-9.8,4.1-10.2,1.7
		c-0.4-2.4-0.6-6-0.6-6c0-0.9-0.1-3.1,1.7-4.1c1.7-0.9,10.7-4.7,17.3-7c6.6-2.3,10.9-3.7,13.3-4.7c2.4-0.9,3.7-1.5,3.9-1.2
		c0.1,0.3-0.7,1.2-1.8,1.7c-1.1,0.5-18,7.4-19.7,8.1c-1.7,0.8,0.2,0.4,0.8,0.1c0.6-0.3,10.5-3.8,14.2-5.3c3.7-1.5,6.8-2.5,6.9-2.2
		c0.1,0.3-4.7,2.2-8.1,4c-3.4,1.8-10,5.3-10.7,5.5c-0.7,0.2-1.3,0.5-1.1,0.6c0.2,0.1,3.9-1.4,6.3-2.4c2.4-1,8.1-3.8,10-4.5
		c1.9-0.7,3.2-1,3.9-0.8c0.7,0.2,0.7,1-0.6,1.5c-1.2,0.5-6.9,3.6-12,5.6c-5.2,2-7.1,2.7-6.8,3c0.3,0.2,4.7-1.6,6.8-2.4
		c2.1-0.8,7.3-3.4,10.1-4.3c2.8-0.9,4.1-1.1,4.2-0.7C385.9,76.4,381.2,79.5,374.5,82.5z M385.7,64.8c-1.2,0.6-10.7,3.6-19.1,6.8
		c-8.4,3.2-14.6,5.5-16.1,6.3c-1.5,0.8-3.7,2.6-5.1-0.4c-1.4-3-5.6-14.3-7.7-18c-2.1-3.7-4.9-9.1-6.9-13.4c-2-4.3-2.8-6.9-2.8-6.9
		c-0.8-1.5-2.9-5.7-2.2-6.4c0.7-0.7,8.1-4.7,13.3-7.1c5.2-2.4,10.3-4.3,15.2-5.9c4.9-1.6,8.1-2.1,9.6-2.1c1.5,0,2.4-0.5,5,5.9
		s9,19.7,12.3,27.7C384.6,59.2,386.9,64.2,385.7,64.8z M369,26.6c-1.4-2.8-3.4-4.3-4.7-4.2c-1.3,0.1-5.3,1.5-13.9,4.6
		c-8.7,3-13.2,4.8-16.8,6.5c-3.6,1.7-1.8,4.3-0.8,6.6c1,2.3,3.9,8.7,3.9,8.7s2,4.4,3.5,7.6c1.5,3.1,5.7,0.2,15.5-3.7
		c9.8-3.9,17.5-6.5,19.3-7.6c1.8-1.1-0.3-4.4-1.5-7.6S370.5,29.4,369,26.6z M372.1,43.8c-2,1.2-6.5,2.4-16.6,6.3s-11.3,4.1-12.1,4.4
		c-0.8,0.3-1.4,0.2-2.1-1.2c-0.7-1.4-5.2-10.8-5.2-10.8c-0.5-1.4-2.4-5.4-1.5-5.8c0.9-0.4,5.5-2.9,10.8-4.9c5.3-2,12-4,14.2-4.8
		c2.2-0.8,4.2-2.2,5.7-1.4c1.5,0.8,2.7,5.1,5,10C372.5,40.5,374.1,42.6,372.1,43.8z M344,39.9c-0.4-0.6-1.2,0-2.1,0.3
		c-0.9,0.3-1.2,0.2-1.5-0.4c-0.2-0.4-0.5-1.3,0.2-1.8c0.7-0.5,2.1-0.8,2-1.4c-0.1-0.6-1.4-0.9-2.7-0.4c-1.2,0.6-2.1,2.6-1.4,4.4
		c0.7,1.8,2.7,2,4.1,1.4C343.9,41.5,344.4,40.5,344,39.9z M363.1,34.8c0.4-0.3,0.8-0.4,0.8-1.5c0,0,0.4-0.3,1.2,0
		c0.8,0.3,2.3,0.4,2.1-0.9c-0.2-1.2-0.5-1.2-1.7-1.2c-1.1,0-1.3-0.2-1-0.7s1.1-1.3,0.4-2.1c-0.7-0.8-1.4,0.8-1.8,1.2
		c-0.4,0.4-0.9,0.4-1.1,0.1c-0.1-0.4-0.1-1.3-1.4-0.9c-0.5,0.1-0.7,0.8,0.1,2.2c0.8,1.4,1.3,3.1,1.4,3.5
		C362,34.8,362.7,35.1,363.1,34.8z M347.8,39.8c1.1,0,3.2-0.7,3.9-2.3c0.7-1.7,0.8-4.3-2.8-5c-0.7-0.1-3.2,2.3-3.3,3.8
		C345.5,37.8,346.6,39.8,347.8,39.8z M349,34.8c1.4,0,1.4,0.9,1.4,1.2s-0.5,1.1-1.5,1.6c-0.9,0.5-1.6-0.2-1.6-0.9
		S348.2,34.8,349,34.8z M359.2,34c-0.1-2.3-0.6-3.1-2.8-3.3c-1.2-0.1-3.3,2-3.1,4c0.2,2,1.6,3.3,2.8,2.8
		C357.2,37,359.3,36.3,359.2,34z M357.8,33.9c-0.2,0.5-0.6,1.3-1.4,1.5c-0.8,0.2-1.5-0.4-1.5-1.2c0-0.8,1-1.8,1.7-1.8
		C357.7,32.5,358,33.5,357.8,33.9z M347.5,46c-0.7-0.6-1.1-2.5-3.7-1.8c-1.4,0.4-3.2,1.5-2.6,2.6c0.6,1.1,1.8,3.6,2.2,4.4
		c0.4,0.8,0.5,1.8,2.2,1.3c1.7-0.5,4.1-2.4,3.8-4.4S348.2,46.6,347.5,46z M343.4,47.1c-0.4-0.8,0.3-1.1,0.7-1.1
		c1.2,0.1,1.8,0.9,0.9,1.7C344.2,48.5,343.7,47.9,343.4,47.1z M346.9,50.1c-0.7,0.6-1.7,1.4-1.9,0.8c-0.2-0.6,0.1-1.3,1-1.8
		c1.1-0.7,1.2-1.2,1.8-0.7C348.3,48.8,347.6,49.5,346.9,50.1z M351.9,42.9c-1.2,0.3-2.8,1.9-2.3,4s2.5,2.7,4.5,1.1
		c2-1.7,2.4-2.9,1.2-4.3C354.2,42.4,353.5,42.5,351.9,42.9z M353.2,46.7c-1.4,1-1.7-0.2-1.8-1.1c-0.1-0.8,0.9-1.5,1.5-1.4
		C354.8,44.6,354.6,45.7,353.2,46.7z M359,40.2c-1,0.1-2.1,1.2-2.4,2.8c-0.3,1.6,1.7,3.1,3,2.8c1.4-0.3,2-1.9,1.9-3.4
		C361.4,40.8,359.8,40.1,359,40.2z M360.1,43.1c-0.1,0.5-0.4,1-0.9,1c-0.5,0-0.8-0.5-0.8-0.9s0.2-0.9,0.8-0.9
		C359.9,42.2,360.2,42.6,360.1,43.1z M368.7,41.6c-1.8-0.7-2.1-1.1-1.9-1.7c0.2-0.6,2.1-1.6,1.2-2.5c-0.9-0.9-1.8,0-2.3,0.9
		c-0.5,0.9-0.6,1.8-0.9,1.4c-0.3-0.4-0.4-2.3-1.8-1.7c-0.6,0.2-0.5,1.1,0,2.7c0.5,1.7,1.3,3.1,1.7,3.6c0.4,0.5,0.8,0.9,1.3,0.2
		c0.5-0.7-0.1-1.1,0.1-1.7c0.1-0.5,0.9,0.1,1.6,0.5c0.7,0.4,1.8,1,2.3,0.3S370.5,42.3,368.7,41.6z"/>
</g>
<g id="Layer_2_copy_2">
	<rect x="450" y="0" class="st0" width="110" height="110"/>
	<path class="st1" d="M539,70.2c-0.7-5-5.7-9.5-8.2-10c-2.5-0.5-10-2.5-11.8-3.5c-1.8-1-1.3-4.1,1-5.5c2.4-1.3,4.6-2.3,6.9-5
		c2.4-2.7,1-9.4-1.4-10.1c-2.5-0.7-4.1,0.2-7.3,1.2c-3.2,1-6.7,2.1-8.4,2c-1.7-0.1-0.1-1.4,0.5-3.3s0.6-3-0.9-9.4
		c-1.6-6.4-9.2-8.7-14.2-6.5c-5,2.2-9,5.9-10.9,11.3c-1.9,5.4,2.1,10.4,5.2,11.7c3.1,1.2-0.5,2.2-2,2.4c-1.9,0.2-5.1,0.5-11.2,0.6
		c-6.1,0.1-7.1,8.3-3.2,13.1c3.9,4.9,13.7,3,16.5,3s2.8,3.6,2.3,6c-0.5,2.4-4.1,7.6-6.9,11.3c-2.8,3.7-1.2,8.2,2.2,10
		c3.4,1.9,7.6,1.6,12.1-0.3c4.6-1.9,10.7-12.7,13.1-14.3c2.5-1.6,6.7,2.3,10.2,3.8c3.5,1.6,6.1,2.2,10.6,1
		C537.7,78.6,539.7,75.2,539,70.2z M520.7,39.6c1.4-0.6,2.2-1.2,3.6-0.2c1.4,1,1.4,3.4,0,5.4c-1.4,2-2.9,2.9-3.7,2.3
		c-0.8-0.6,0.7-2.9,0.2-3.5c-0.7-0.8-1.8-0.4-2.9-1C516.7,41.9,519.2,40.2,520.7,39.6z M484.4,56.8c-0.4,1-1.8,2.1-2.9,2.4
		c-1.1,0.3-2.4-0.4-5-1.9c-2.6-1.4-2.8-4-2.2-6c0.6-2,1.9-2.6,3.4-2.5c0,0,3.4,0.1,4.7,0.1s-0.3,2-1.1,2.9c-0.8,0.9,0.8,2,2.5,2.1
		C485.4,54,484.8,55.8,484.4,56.8z M497.9,86.7c-1.7,0.8-3.2,1.7-5.5,1.8c-2.3,0.1-3.8-1.7-4.8-3.4c-0.9-1.8-0.2-3.8,0.6-5
		s1.7-2.1,3-1.9c2.3,0.4,1.8,3.3,2.7,4.2c0.9,0.9,1.9,0.2,3.4-0.6c1.6-0.8,1.9,1.8,2.4,3C500.3,86.1,499.6,85.9,497.9,86.7z
		 M520.7,73.9c-1.1,0.1-2.6-2.1-4.9-2.1s-4.1,0.5-6.7,1.9c-2.6,1.3-6.7,9.7-7.4,10.2c-0.7,0.5-1.3-1.8-2.3-3.5
		c-0.9-1.8-2.8-0.6-3.9,0.1c-1.1,0.7-1-0.1-1-2c0-1.9-2-2.3-2.6-2.3s0.8-2.8,2.1-5c1.2-2.2,1.8-6.1,1.2-9.4c-0.5-3.3-5.5-3.1-7.7-3
		c-2.2,0.1-3.1-0.2-2.4-1c0.7-0.8,1.4-2.1,1.3-3.5c-0.1-1.4-0.8-2.7-2.1-2.9c-1.2-0.2,0.3-1.1,0.3-2.3c0-1.1,1.2-0.5,2.2-0.5
		c0.9,0,2.4-1.5,4.8-1.8c2.9-0.3,3.7-3,2.5-4.6s-5.5-4-6.8-7.9c-1.3-3.8,4.4-11.1,10.6-11.9c6.1-0.8,8.5,3.4,9.4,7.2
		c0.9,3.8-1.2,9.7-1.3,12.6c-0.1,2.9,8.2,0,9.3-0.4c1.1-0.4,0.8,0.6,1.2,2.1s2.5,0.8,2.1,1.3c-0.4,0.5,0.1,1.8,0.4,2.6
		c0.3,0.8-1.6,1-3.5,2.9c-2,1.9-1.8,2.9-1,6.2c0.7,3.3,3,4.6,8.1,4.9c5.1,0.3,6.7,1.2,7.8,2.2s-1.7,2.2-3,2.4s-0.8,2.2-1,4
		c-0.2,1.9-2.2,1-3,1.1C522.3,71.8,521.8,73.8,520.7,73.9z M531.3,77.2c-3.4,1.1-6.4-1.1-7.8-2.1s1.4-1.1,2.6-1.4
		c1.9-0.6,2.1-3.1,2-5.3c-0.1-2.2,1.3-0.8,2.8-1s1.3-0.8,1.7-2.2c0.3-1.3,2.9,2.3,3.5,5.9S534.7,76,531.3,77.2z M495.1,31.3
		c0.8-0.7,0.1-2.7-1.4-2.5c-1,0.1-2.2,2.1-0.8,3.1C494.2,33,494.3,32.1,495.1,31.3z M499.8,30.1c1.4,1,2.3,0.1,3.1-0.7
		s-0.4-1.9-2.2-2C499.2,27.3,498.3,29.1,499.8,30.1z M503.7,35c0.7-0.7,0.9-2.4,0-2.4c-0.9,0-1.6,2-4.7,2.5
		c-2.1,0.3-4.2-1.4-5.3-0.4c-1,1,1.3,3.2,5,2.6C502.4,36.6,503,35.7,503.7,35z M505.2,53c0.8-1.1,1.7-4.9-2-3.3
		c-1,0.4-3.2,1.2-1.8,3.6S504.3,54.1,505.2,53z M505.5,58.4c-2.1,1.3-2.4,1.7-1.4,2.8c0.9,1.1,1.7,1.2,3.2,0.1
		C508.8,60.2,507.6,57.1,505.5,58.4z M508.9,65.1c-1.1,0.1-3.4,1.4-1.8,3.2c1.7,1.8,2.5,1,3.5,0.3C511.7,67.9,511.6,64.8,508.9,65.1
		z"/>
</g>
</svg>
