<?xml version="1.0" encoding="utf-8"?>
<!-- Generator: Adobe Illustrator 20.1.0, SVG Export Plug-In . SVG Version: 6.00 Build 0)  -->
<svg version="1.1" id="Layer_5" xmlns="http://www.w3.org/2000/svg" xmlns:xlink="http://www.w3.org/1999/xlink" x="0px" y="0px"
	 viewBox="0 0 157.1 38.6" style="enable-background:new 0 0 157.1 38.6;" xml:space="preserve">
<style type="text/css">
	.st0{fill:#231F20;}
</style>
<g>
	<path class="st0" d="M2,38.6l-2-2.2c2.9-2.7,5.9-5.3,9-7.7l1.8,2.4C7.8,33.4,4.9,35.9,2,38.6z M20.3,24.3l-1.6-2.5
		c3.3-2.1,6.8-4.2,10.2-6l1.4,2.7C27,20.2,23.6,22.2,20.3,24.3z M40.8,13.4l-1.2-2.8c3.6-1.5,7.4-2.9,11.1-4.1l0.9,2.9
		C48.1,10.6,44.4,11.9,40.8,13.4z M142.7,12.8c-3.6-1.5-7.2-2.8-10.9-3.9l0.9-2.9c3.8,1.2,7.5,2.5,11.2,4L142.7,12.8z M62.9,6.3
		l-0.7-2.9C66.1,2.5,70,1.8,74,1.3l0.4,3C70.5,4.7,66.7,5.4,62.9,6.3z M120.6,6c-3.8-0.8-7.6-1.5-11.5-1.9l0.4-3
		c3.9,0.5,7.9,1.2,11.7,2L120.6,6z M85.9,3.2l-0.1-3c3.9-0.2,8-0.2,11.9-0.1l-0.1,3C93.7,3,89.8,3,85.9,3.2z"/>
</g>
<path class="st0" d="M157.1,18.2c-0.4-1.8-0.9-3.6-1.3-5.4c-0.5-2-1.1-4.1-1.8-6.1l-2.9,0.9c0.6,2,1.2,4,1.7,5.9
	c0.2,0.8,0.4,1.6,0.6,2.3c-1,0.2-2,0.4-3.1,0.7c-2,0.5-4.1,1-6.1,1.6l0.8,2.9c2-0.6,4-1.1,6-1.6c1-0.2,2.1-0.4,3.1-0.7
	c0,0,1.7-0.4,2.2-0.5L157.1,18.2z"/>
</svg>
