<?xml version="1.0" encoding="utf-8"?>
<!-- Generator: Adobe Illustrator 20.1.0, SVG Export Plug-In . SVG Version: 6.00 Build 0)  -->
<svg version="1.1" id="Layer_5" xmlns="http://www.w3.org/2000/svg" xmlns:xlink="http://www.w3.org/1999/xlink" x="0px" y="0px"
	 viewBox="0 0 137.5 39" style="enable-background:new 0 0 137.5 39;" xml:space="preserve">
<style type="text/css">
	.st0{fill:#231F20;}
</style>
<g>
	<g>
		<path class="st0" d="M2,39l-2-2.2c2.9-2.7,5.9-5.3,9-7.7l1.8,2.4C7.8,33.8,4.9,36.3,2,39z M20.3,24.7l-1.6-2.5
			C22,20,25.5,18,29,16.1l1.4,2.7C27,20.6,23.6,22.6,20.3,24.7z M40.8,13.8L39.7,11c3.6-1.5,7.4-2.9,11.1-4.1l0.9,2.9
			C48.1,11,44.4,12.3,40.8,13.8z M62.9,6.7l-0.7-2.9C66.1,2.9,70,2.2,74,1.7l0.4,3C70.5,5.1,66.7,5.8,62.9,6.7z M120.6,6.4
			c-3.8-0.8-7.6-1.5-11.5-1.9l0.4-3c3.9,0.5,7.9,1.2,11.7,2L120.6,6.4z M85.9,3.6l-0.1-3c3.9-0.2,8-0.2,11.9-0.1l-0.1,3
			C93.7,3.3,89.8,3.4,85.9,3.6z"/>
	</g>
	<path class="st0" d="M137.5,11.5c-0.4-1.8-0.9-3.6-1.3-5.4c-0.5-2-1.1-4.1-1.8-6.1l-2.9,0.9c0.6,2,1.2,4,1.7,5.9
		c0.2,0.8,0.4,1.6,0.6,2.3c-1,0.2-2,0.4-3.1,0.7c-2,0.5-4.1,1-6.1,1.6l0.8,2.9c2-0.6,4-1.1,6-1.6c1-0.2,2.1-0.4,3.1-0.7
		c0,0,1.7-0.4,2.2-0.5L137.5,11.5z"/>
</g>
</svg>
