<?xml version="1.0" encoding="utf-8"?>
<!-- Generator: Adobe Illustrator 19.2.0, SVG Export Plug-In . SVG Version: 6.00 Build 0)  -->
<svg version="1.1" id="Layer_1" xmlns="http://www.w3.org/2000/svg" xmlns:xlink="http://www.w3.org/1999/xlink" x="0px" y="0px"
	 viewBox="0 0 60 60" style="enable-background:new 0 0 60 60;" xml:space="preserve">
<style type="text/css">
	.st0{fill:#FFFFFF;}
</style>
<path class="st0" d="M30,0C13.5,0,0,13.5,0,30s13.5,30,30,30c16.5,0,30-13.5,30-30S46.5,0,30,0z M42,35.2c-0.2,0.2-0.6,0.4-0.9,0.4
	c-0.3,0-0.6-0.1-0.9-0.4L30,25L19.8,35.2c-0.5,0.5-1.3,0.5-1.8,0c-0.5-0.5-0.5-1.3,0-1.8l11.1-11.1c0.2-0.2,0.6-0.4,0.9-0.4
	c0.3,0,0.6,0.1,0.9,0.4L42,33.4C42.5,33.9,42.5,34.7,42,35.2z"/>
</svg>
