<?xml version="1.0" encoding="iso-8859-1"?>
<!-- Generator: Adobe Illustrator 19.1.0, SVG Export Plug-In . SVG Version: 6.00 Build 0)  -->
<svg xmlns="http://www.w3.org/2000/svg" xmlns:xlink="http://www.w3.org/1999/xlink" version="1.1" id="Capa_1" x="0px" y="0px" viewBox="0 0 508.82 508.82" style="enable-background:new 0 0 508.82 508.82;" xml:space="preserve" width="512px" height="512px">
<g>
	<g>
		<path d="M254.41,413.149c-137.895,0-246.927-143.239-251.203-149.653c-4.276-5.345-4.276-13.896,0-19.241    C7.483,237.841,116.516,95.671,254.41,95.671S501.337,238.91,505.613,244.255c4.276,5.345,4.276,13.896,0,19.241    C501.337,269.91,393.374,413.149,254.41,413.149z M36.344,253.876c26.724,31,115.447,127.205,218.066,127.205    s192.411-95.137,218.066-126.136c-26.724-31-115.447-126.136-218.066-126.136C151.791,127.74,63.068,222.876,36.344,253.876z" fill="#FFFFFF"/>
		<path d="M254.41,358.633c-57.723,0-104.757-47.034-104.757-104.757s47.034-104.757,104.757-104.757    s104.757,47.034,104.757,104.757S312.133,358.633,254.41,358.633z M254.41,181.187c-39.551,0-72.689,32.068-72.689,72.689    s32.068,72.689,72.689,72.689c39.551,0,72.689-33.137,72.689-72.689S295.03,181.187,254.41,181.187z" fill="#FFFFFF"/>
	</g>
</g>
<g>
</g>
<g>
</g>
<g>
</g>
<g>
</g>
<g>
</g>
<g>
</g>
<g>
</g>
<g>
</g>
<g>
</g>
<g>
</g>
<g>
</g>
<g>
</g>
<g>
</g>
<g>
</g>
<g>
</g>
</svg>
