<?xml version="1.0" encoding="utf-8"?>
<!-- Generator: Adobe Illustrator 20.1.0, SVG Export Plug-In . SVG Version: 6.00 Build 0)  -->
<svg version="1.1" id="Layer_1" xmlns="http://www.w3.org/2000/svg" xmlns:xlink="http://www.w3.org/1999/xlink" x="0px" y="0px"
	 viewBox="0 0 110 110" style="enable-background:new 0 0 110 110;" xml:space="preserve">
<style type="text/css">
	.st0{fill:none;}
	.st1{fill:#231F20;}
</style>
<g>
	<rect x="147.5" y="0" class="st0" width="110" height="110"/>
	<path class="st1" d="M245.2,22.4c-0.3-0.7-3-4.4-3.8-4.9c-0.8-0.6-2.4,1.3-3.4,2.2s-3.8,4.3-4.5,4.5c-0.7,0.3,2.1-5.9,2.3-7.1
		c0.2-1.2-3.2-2.8-5.8-3.4c-2.6-0.6-2.7,0.3-3.6,1.8s-3.4,9.3-3.4,9.3c-3.2,0.1-5.4,2.9-7.7,5.7c-2.3,2.7-7.6,11.4-7.6,11.4
		s-0.9-10.3-0.9-12.9s-2.1-3.3-3.9-3.3c-1.7,0-8.3,0.5-10.1,0.8c-1.8,0.3-1.5,2.9-1.5,2.9c-0.9-0.9-4.4-2.3-9-2.5
		c-4.5-0.2-10.1,2.3-12.4,4.4c-2.4,2.1-6.1,7-6.2,12.2c-0.1,5.2,3.8,8.5,3.8,8.5c-10.6,1.4-7.7,6.8-7,8.6s3.7,7.8,4.8,10.6
		c1.1,2.8,4.1,2.3,4.6,2.2c0.5-0.1,2.2,7.2,3.5,12.7c1.3,5.6,2.3,8.2,4.7,9.6c2.4,1.5,10,0.3,19.7,0.1c9.6-0.2,18.7,1.2,23.7,0.3
		c5-0.9,6.1-6.2,7.3-11.9c1.1-5.7,2.5-12.5,2.9-12.7c0.4-0.1,1.6,0.2,2.6-0.1c1-0.2,2.2-1.2,3-3.3c0.8-2.2,0.2-10,0.3-14.3
		c0.1-4.3-3.9-5.1-4.9-5.2c-1,0,1.8-2.3,4.6-6c2.9-3.7,0.4-6.5,0.4-6.5s0.3-0.6,0.7-0.8c0.5-0.3,3.8-3.4,5.4-4.6
		c1.6-1.2,0.3-2.4-0.5-3c-0.8-0.6,0.1-1.2,1.3-2.5C245.6,23.9,245.6,23.1,245.2,22.4z M194.1,29.9l9.8-0.6l1,27.4l-8.6,0.4
		L194.1,29.9z M170.7,35.4c2.3-2.4,6.1-5.6,11.9-4.8c5.9,0.8,8.3,3.9,8.7,4.3c0.4,0.4,0.7,3.6,0.6,4.3s-0.2,1-0.6,0.6
		c-0.4-0.4-0.7-0.3-1.2,0.3c-0.5,0.7-1.8,1.8-2.6,2.4c-0.8,0.6-1.3,0.6-2,0.4c-0.7-0.2-1-0.8-0.6-1.6c0.4-0.8,1.4-4.4,1.7-5.1
		c0.3-0.8,0.6-1.7,0.2-2.1c-0.4-0.4-1.2-0.6-1.6-0.3c-0.5,0.3-1.1,2.7-1.9,5.3c-0.8,2.6-1,3.7-1.3,4.1c-0.3,0.4-0.4-0.1-1.2-1.4
		c-0.8-1.3-3.1-4.2-3.8-5.3c-0.7-1.1-1.5-1.2-2.2-0.6c-0.7,0.6-0.1,1.3,0.3,2c0.4,0.7,2.4,3.9,3.2,5c0.8,1.1,1.6,1.8,1.2,2.1
		c-0.5,0.3-2.1-0.9-3.7-1.2s-3.9-1.1-5.5-1.3c-1.6-0.2-1.3,0.3-1.6,1.3c-0.3,1,1.3,1.3,3.3,1.6c2,0.3,4.8,1.2,5.5,1.5
		c0.6,0.3,1,0.6,0.9,0.9c-0.1,0.4-2.4,0.8-3.1,1.1c-0.7,0.3,0,2,0,2l-5.2,0.6c0,0,0.1-1.6-0.4-2.3s-1.3-0.9-2.6-3.5
		C165.8,43,168.4,37.8,170.7,35.4z M188.4,44.8c-0.3-0.5,1.3-1.3,1.9-2c0.6-0.7,1.5-1.5,1.6-0.8c0.1,0.7,0.9,6.7,0.4,6.8
		c-0.6,0.1-2.1,0.3-2.7,0.4c-0.6,0.1-2.2-0.3-1.7-0.7C188.4,48.2,189,45.8,188.4,44.8z M185.6,48c-0.3,1,0.3,1.2-1.4,1.5
		c-1.7,0.3-2.3-0.9-2.3-2s1.1-2,1.9-2.2c0,0,0.6,0,1.7,0.4C186.7,46,185.9,47,185.6,48z M227.1,78c-0.8,4-2.3,9.2-2.8,11.3
		c-0.5,2.1-1.6,2.8-3.1,3.2c-1.5,0.4-3.7,0.5-6.8,0.4c-3.1-0.1-10.7-0.4-16.2-0.4c-5.5,0-14.6,0.6-17.4,0.6c-2.7,0-4-4-4.8-7.7
		c-0.8-3.6-2.9-8.9-3.8-10.4c-0.9-1.4-0.1-1.9,0.5-2c1.5-0.2,11.2-1.9,18.9-3.1c7.7-1.2,11-0.8,13.7-0.6c2.6,0.1,5.5,0.6,10.9,0.5
		c5.3-0.1,9.7,0.2,11.2,0.9C228.8,71.6,228,74,227.1,78z M234.3,55.3c0.1,2.2,0.5,6.2,0.3,8.4c-0.2,2.1-0.4,4.9-3.2,4.5
		c-2.8-0.4-7.8-2.2-11.4-2.1c-3.5,0.1-5.1,0.5-11.7,0.4c-6.6,0-11.2-0.5-19.2,1c-7.9,1.5-14.5,2.4-17,2.7c-2.5,0.3-4,0.7-4.6-0.9
		c-0.6-1.6-2.1-5.2-2.1-5.2c-0.6-1.6-3.6-7-2.1-7.6c1.6-0.6,6.3-1.5,11.9-2.4s13.8-1.5,15.4-1.8c1.6-0.3,2.2,0,2.2,0
		s0.3,6.2,1.1,7.1c0.8,0.9,2.3,1.4,4.6,1.2c2.4-0.1,5.9-0.1,6.7-0.2c0.8-0.1,2.7-1.1,2.7-3.1c-0.1-2-0.5-5.8,0-5.9s6.5,0.7,11,0.8
		s8,0,10.8,0S234.2,53.1,234.3,55.3z M234.9,39.4c-0.2,1.3-1.4,2.1-3.1,4.1c-1.7,2-3.8,5.1-4.3,5.1c-0.5,0.1-5.4,0.4-11.1-0.1
		c-5.7-0.5-8.2-0.7-8.8-1.4c0,0-0.3-1.6,0.3-2.2c0.6-0.6,6.4-7.8,8.3-10.3c1.9-2.5,5.7-6.4,6.4-6.1c0.7,0.3,6.2,4.3,8.5,6.2
		C233.5,36.7,235.1,38.1,234.9,39.4z M241.4,24.9c-0.8,0.9-3.1,3.1-2.6,3.8c0.5,0.6,1.5,1,1.1,1.6c-0.5,0.7-1.5,1.2-2.5,2.2
		c-0.9,1-1.4,2-2.4,1c-1-1-5.3-4-6.7-5.1c-0.9-0.7-3.1-1.4-2.8-2.2c0.4-0.9,1.6-4.5,2.4-6.9c0.8-2.4,1.1-3.4,1.9-3.1
		c0.8,0.2,2.3,1.1,2.6,1.4c0.3,0.2,1,0.6,0.4,1.5c-0.6,1-2,5.1-1.9,5.7c0.2,0.7,0.6,1.2,1.4,1.6c0.8,0.4,1.7,1.1,2.2,0.7
		c0.4-0.4,1.9-2.3,3.5-4.2c1.6-1.9,2-2.9,2.8-2.1c0.8,0.7,1.4,1.3,1.8,1.8C242.8,23.2,242.2,24.1,241.4,24.9z M215.8,42.5
		c-1.2-0.7-1.8-0.3-2,0.3c-0.4,1.2,1.5,1.9,2.6,2.6c1.1,0.7,2.3,2.3,3.3,2.1c1.1-0.2,0.6-1.8-0.1-2.5
		C218.9,44.3,217,43.3,215.8,42.5z M220.3,36.7c-0.6-0.6-1.6-0.2-1.9,0.3c-0.6,1.2,1.4,2.7,3,3.8c1.6,1.1,1.1,1.5,1.5,2.1
		c0.4,0.6,1.9,0.5,2.3-0.3c0.4-0.9,0-1.9-1-2.7C223.2,39,220.9,37.2,220.3,36.7z M193.9,81.8c-2,0.2-2.5,0.5-2.5,0.5
		c-1.3,0.4-4.2,0.2-4,2c0.2,1.8,0.4,3.1,0.9,3.8s1.2,1.3,3.4,0.6c2.2-0.7,5.1,0,4.9-1.8C196.4,85,195.9,81.6,193.9,81.8z
		 M192.8,86.2c-0.9,0.1-0.7,0.1-2,0.3c-1.3,0.2-0.9-0.7-1.1-1.4c-0.2-0.7,1.4-0.6,2-0.8c2.1-0.6,2.4,0.2,2.5,0.9
		C194.2,86,193.6,86.1,192.8,86.2z M217.4,71.2c-2.2,0.1-2.8,0.2-3.6,0.4c-0.6,0.2-2.8-0.1-2.8,2.1c-0.1,2.2-0.2,4.1,1.2,4.1
		c1.4,0,4.6,0.1,5.7,0c1.1-0.1,1.8-0.7,1.7-2.4C219.4,73.7,219.6,71.1,217.4,71.2z M216.9,75.2c-0.7,0.1-1.4,0-2.9,0.1
		c-1.4,0.1-0.8-0.7-0.9-1.2c0-0.5,0.9-0.1,1.6-0.3c2.1-0.7,2.5,0.1,2.6,0.4C217.4,74.5,217.6,75,216.9,75.2z M211.8,80.3
		c-1.9,0.1-2.9,0.2-2.9,0.2c-1.2-0.1-3.7-0.3-4.1,1.1c-0.4,1.4-0.3,3.5-0.3,4.1c0,0.6,0.8,2.2,2.7,2c1.9-0.2,2.1-0.1,3.3,0
		c1.2,0.2,2.6,0.1,2.9-2.7C213.9,82.1,213.8,80.2,211.8,80.3z M211.4,83.6c-0.1,0.8-0.1,1.2-1.1,1.2c-1,0-1.7,0.1-2.8,0
		c-1-0.1-0.4-0.8-0.5-1.6c-0.1-0.8,1.2-0.3,2-0.4C210.9,82.6,211.5,82.8,211.4,83.6z M187,78.3c-0.2-2.3,0.1-4.3-1.3-4.7
		c-1.4-0.4-3.2,0-3.2,0c-1.3,0.2-3.7,0-3.6,1.9c0.1,1.9,0.8,4.8,1,5.2c0.2,0.4,0.4,0.9,2.6,0.6c2.2-0.3,3-0.4,3.5-0.5
		C186.5,80.7,187.2,80.6,187,78.3z M184.9,78c0,1.2-1,1-2.4,1.1c-1.4,0.1-1.1-1.3-1.2-2.3c-0.1-1,1-0.7,1.8-0.8c0,0,0.4,0.1,1.1,0
		S184.9,76.8,184.9,78z M201.2,71.7c-1.1,0.2-4.9,0.2-5.5,0.4c-0.8,0.2-1.6,0.6-2.1,1.2c-0.5,0.6,0.2,2.9,0.2,3.6c0,0.7,0.3,2,2.4,2
		c2.1,0,4.7-0.2,5.3-0.3c0.6-0.1,1.1-1.1,1.1-2.8C202.4,74.1,202.2,71.6,201.2,71.7z M200.4,75c0.1,0.6,0.1,1.2-0.6,1.4
		c-0.8,0.2-1.6,0.1-3.1,0.2c-1.5,0.1-1.1-1-1.1-1.8c0-0.7,1.6-0.4,2.2-0.5C200.4,73.8,200.3,74.4,200.4,75z"/>
</g>
<g>
	<rect x="292.5" y="0" class="st0" width="110" height="110"/>
	<path class="st1" d="M382.7,71.6c-0.6-2.9-3.3-18.1-5.1-28.4c-1.9-10.3-4.3-19.3-6.1-23.4s-6.3-2.1-11.9-0.8
		c-5.7,1.2-13.3,2-26.1,5.5s-17.1,6.1-20,7.9c-2.9,1.9-1.4,5.5-1,6.6c0.4,1.1,4.5,12.4,6,18.5c1.4,5.9,7.4,26.1,9.2,31.4
		c1.8,5.4,5.7,3.6,9.6,2.5c3.9-1.1,10.1-2.9,17.3-4.7c7.2-1.9,13.9-2.1,18.1-2.7c4.2-0.6,5.6-2.4,8.4-3.9
		C383.9,78.5,383.3,74.5,382.7,71.6z M378.8,76.9c-2,1.5-4.5,3-11.9,4c-7.4,1-13.8,1.9-19.8,3.5c-6,1.6-8.4,3.1-10.9,3.7
		s-4.5,2-5.7-1.3c-1.1-3.3-11.1-37.6-12.9-42.5c-0.9-2.5-3.7-7.9-0.8-9.4c2.9-1.4,8.9-4.8,20.5-7.7c11.6-2.9,21.8-4.5,24.8-5.3
		c3-0.7,6.8-2,7.4,1s3.7,17.3,7,33.8S380.8,75.3,378.8,76.9z M330.8,45.4c0,0,3.3-1.1,4.8-1.8c1.5-0.6-0.9-6.3-1.3-7.7
		c-0.4-1.4-1.6-2.4-4-1.5c-2.4,0.8-6.3,1.9-7.6,2.4c-1.3,0.5,0.7,5.9,2,8.4C325.9,47.7,328.1,46.1,330.8,45.4z M325.5,41.9
		c-0.3-1.5-1.9-3.4-0.3-3.8c1.5-0.4,5.1-1,6-1.3s1.5-0.3,2,1.3c0.4,1.6,1.5,3.7,0.3,4.2c-1.2,0.5-2.5,1.1-4.2,1.6
		C327.4,44.4,326,44.8,325.5,41.9z M336.1,66.3c-0.9,0.2-4.2,0.9-5.8,1.5c-1.5,0.6,0.1,4,0.3,4.7c1,3.9,2.3,4,3,3.9
		c0.7-0.1,2.7-0.6,4.9-1.3s0.6-3.5-0.1-6.2C337.7,66.3,337,66.1,336.1,66.3z M336.9,73.2c-0.9,0.2-1.9,0.7-2.6,0.9
		c-0.7,0.2-1.3,0.5-1.9-2.5c-0.1-0.7-0.7-1.3,0.1-1.6c0.8-0.3,2.1-0.7,2.6-0.7c0.5,0,1.2,0,1.5,1C337,71.3,337.8,73,336.9,73.2z
		 M372.5,59.2c-1.1-0.7-3.5,0.3-6.3,1c-2.8,0.7-5.3,1.1-9.2,1.9c-3.9,0.7-10.2,2.3-11.8,2.6c-1.6,0.3-0.8,3.2-0.7,4.5
		c0.4,5,3.8,3,11.9,1.2s9.9-2.5,14.3-3.2c4.4-0.7,3-3.3,2.9-4.2S373.7,59.9,372.5,59.2z M371,64.3c-1.1,0.3-4.3,0.8-8.4,2
		c-4.1,1.1-7.1,2.3-10.9,2.8c-3.8,0.5-5.3,0.9-5.3,0.3s-0.1-2-0.1-2c0.3-0.1,2.8-0.5,7.3-1.8s10.3-2.4,13.2-3.1s4.4-1.4,4.6-0.4
		C371.6,63.2,372.1,64,371,64.3z M354.4,54.1c4.5-1.3,15-3.3,17.1-3.9s1.6-2.9,1-4.6c-0.6-1.8-0.9-2.7-2.9-2.5
		c-2,0.2-6.3,1.2-12.5,2.6c-6.2,1.3-12,2.6-14,3.1c-2,0.5-0.8,2.9-0.7,4.7C342.6,58.3,349.9,55.5,354.4,54.1z M344.4,52.6
		c0-0.3-0.6-1.4,0.3-1.4c0.9,0,5.9-1,9.4-2.2s9.4-2.1,11.8-2.8s4.3-2,4.5-0.8c0.2,1.1,0.7,2.3-0.1,2.5c-0.8,0.2-7.9,0.8-12.4,2.3
		c-4.4,1.4-9,2.7-10.4,3.3C346.2,54,344.4,54.5,344.4,52.6z M332,60.9c1.8-0.4,3.3-1.2,5.6-2c2.3-0.7,0.5-4.7-0.2-7.1
		c-0.7-2.4-2.9-2.2-4.9-1.9c-2.1,0.3-5.1,1.5-6.1,1.9s0.8,4.4,1,5.5C328.4,62.4,330.2,61.3,332,60.9z M329.3,56.5
		c-0.2-1.2-2-2.8-0.6-3c1.3-0.2,2.3-0.8,4.3-1.1s2.3-0.8,2.5,0.9c0.2,1.8,1.3,3.9-0.2,4.2c-1.5,0.3-2.3,0.5-3.5,0.9
		C330.5,58.9,329.9,59.5,329.3,56.5z M350.7,38.5c4.4-1.2,11.8-1.9,15.7-2.6c3.8-0.7,1.8-4.1,1-6.1c-0.7-2-0.8-1.8-3.3-1.6
		c-2.5,0.1-7.4,1-11.6,1.9c-4.2,0.8-11.9,2.9-13.4,3.5c-1.4,0.6-0.3,3-0.1,4.3c0.7,4.9,2.2,4,3.7,3.3
		C344.2,40.4,346.3,39.7,350.7,38.5z M340.6,37.5c0,0-1-1.5,0.1-1.5c1.1,0,2.6-0.7,4.2-1.3c1.6-0.6,6.6-1.4,9.6-2.3
		c3-0.8,6.2-1.2,8.3-1.6c2.2-0.4,2.1-1,2.6,0c0.5,1,0.6,1.9-0.9,2.7c-1.5,0.8-3.8,0.7-8.6,1.9c-4.8,1.1-5.5,0.9-9,2.2
		C343.4,38.7,341,40.6,340.6,37.5z"/>
</g>
<g>
	<rect x="447" class="st0" width="110" height="110"/>
	<path class="st1" d="M528.4,45.3c1.7-1.1,1.6-5.5,2-9.2c0.4-3.7,0.1-11.1,0.1-20.4s-5-9.8-8.7-9.8s-12-0.5-18.7-0.7
		C496.4,4.9,485.7,5,480,5.8s-6.3,6.5-6.5,12s-0.1,20.4,0,23.3c0.1,2.9,3.2,5,2.7,5.6c-2,1.9-1.9,9.7-1.7,16.8s-0.2,25.8-0.3,33.9
		c-0.1,8.1,11.4,5.9,21.8,6.3s24.9,1.6,29,1.2c4.1-0.4,3.5-9.3,3.9-19.1c0.3-9.8,0.6-20.8,1.3-27.8c0.6-7.1-1.1-10.4-1.8-11.1
		C527.5,46.1,526.7,46.4,528.4,45.3z M525.8,76.1c-0.4,9.7-0.1,15.7-0.7,19.7c-0.6,4,0,5.6-6.6,5.3c-6.6-0.2-16.9-1.2-23.5-1.5
		c-6.6-0.3-12.6-0.5-13.8-0.5c-1.2,0-4.2-0.1-3.9-4.5c0.3-4.4,0.5-34.6,0.2-40c-0.1-2.3-0.1-4.9,1.4-4.8c1.5,0.1,9.5,0.2,14.5,0.3
		c5,0.1,6.7,0.2,7.4-0.3c0.6-0.5,0.6-0.7,1.4-0.7c0.7,0,15.4,0.3,17.5,0.3c2.1,0,6.7-0.7,6.7,2.5S526.2,66.4,525.8,76.1z
		 M526.8,31.5c0,4.5,0.6,11-1.8,12.2c-2.5,1.2-9.4,1.6-15.4,1.5c-6-0.1-12.6-0.1-17.4-0.1c-4.8,0-14.7,1.2-15.1-3.7
		s0.2-13.7,0.2-13.7c0.1-5.9-0.4-16.2,2-17.2c2.5-1.1,9.1-1.7,14.3-1.7s17.8,0.7,23.3,0.7c5.6,0,11,0,10.6,4.3S526.8,27,526.8,31.5z
		 M485,23.1c0.2-2.1,0-4.3-1.9-4.1c-1.9,0.2-2.4,1-2.6,2.2c-0.2,1.3-0.6,6.4-0.6,9.4c0,0,0,3.3,0.1,5.2c0.1,1.9,1.8,2.7,3.4,2.6
		c1.6-0.1,1.7-2.2,1.7-4.3C485.2,32.2,484.8,25.2,485,23.1z M482.3,54.6c-1.8,0.1-1.3,2.1-1.3,3c0,0.9,0.2,5.7,0.1,7.5
		c-0.1,2.1-0.5,7-0.4,9.7c0.1,2.8,3.6,2,4.9,1.6c1.3-0.4,0.7-2,0.7-3c0-1-0.3-3.5-0.3-5.9c0-2.4,0.2-6.8,0.4-9.8
		C486.7,54.7,484.1,54.5,482.3,54.6z M523.7,16c-0.1-3.2-4.9-2.1-7.1-2.6c-2.1-0.4-3.1-0.1-3,0.9c0.1,1.3,5.9,2.4,7.3,2.5
		s0.9,1.7,0.9,3s-0.1,7.3-0.1,9.7s0.5,2.7,1.5,2.7s0.6-1.6,0.6-4.4S523.8,19.2,523.7,16z M523,55.1c0.2-2.8-3.4-2.8-4.8-2.8
		s-2.6,0.4-2.6,1.2c0,1.5,2.5,1.5,4.3,1.6c1.8,0.1,1,3.1,1,7.5s0.2,10.9,0.1,13.9c-0.1,3,0.1,7.1,0.9,7.2s1-0.2,1.4-1.7
		c0.4-1.5-0.1-8.3-0.3-12.8C522.7,64.6,522.8,57.8,523,55.1z"/>
</g>
<g>
	<rect y="0" class="st0" width="110" height="110"/>
	<path class="st1" d="M92,68.4c-1.6-1.2-10-4.2-14.4-7.8c-4.4-3.6-8.9-8.8-13.8-11.9S51.7,41.8,47,38.3c-4.7-3.4-12.2-7.5-13.7-8.7
		c-1.5-1.2-5.5-4.1-5.5-4.1c-0.9-0.3-2,0.2-3.7,1.9c-1.7,1.7-9.1,17.1-5.4,28.5c3.7,11.3,9.5,17.9,16.1,22.3c6.6,4.4,20,7.4,27.2,6
		s12.3-3.4,18.3-6.4C86.4,74.7,93.7,69.7,92,68.4z M34.8,33.3c1.9,0.3,7.9,3.6,10.1,6.1c2.2,2.5,7.2,5.8,10.6,7.5
		c3.3,1.7,7.5,3.3,9.5,5.2s12.3,11.3,13.7,12.3c1.5,1-3.6,3.2-6.1,4.7c-2.4,1.5-8.1,4-16.4,5c-8.3,0.9-14.4-2.1-20-6.4
		c-5.7-4.3-8.1-15.7-7.9-19.4c0.2-3.6,3.9-12.8,4.4-13.7C33.3,33.5,34.1,33.2,34.8,33.3z M86.1,70.8c-1.2,1-5,2.6-9.4,4.7
		c-4.3,2.1-10.4,3.8-14.6,4.9c-4.2,1.1-12.3-0.1-19-2c-6.7-1.9-10.7-6-15.4-11.9c-4.7-5.9-7-15.9-6.3-22.3
		c0.7-6.4,4.8-15.2,5.3-15.9c0.7-0.9,2.6,0.2,4,1.9c1.4,1.7-0.9,3-2.9,7.4c-1.9,4.4-3,14.4-1.7,19.8c1.3,5.4,6.7,13.3,13.7,17.5
		c7.1,4.1,18.4,2.2,23.2,1.6c4.8-0.6,19.2-8.3,19.9-8.7c0.7-0.4,3,0.1,4.3,0.8C88.6,69.1,87.3,69.8,86.1,70.8z M37.3,48.4
		c1.6,0.7,4-1,4.8-2c0.8-1-0.3-2.6-0.9-2.8c-0.5-0.2-0.8,0.9-0.8,0.9s-0.3,1.1-1,1.9c-0.7,0.9-1.6,0.3-2.2-0.4
		c-0.6-0.7-0.3-2.3,0.2-2.5c0.5-0.2,2.2-0.3,2.3-0.7c0.5-2.2-4.1-1.2-4.9,0.7C34.2,45.6,35.8,47.7,37.3,48.4z M39.9,58.7
		c-1.2,1.8-2.2,2.6-0.3,4.7c1.9,2.1,5,0.8,6.1-0.2c1.1-0.9,0.2-3.6-0.8-3.5c-1,0.2-0.8,1-0.5,1.3c0.3,0.3-0.6,0.9-0.9,1.3
		c-0.3,0.4-0.5,0.2-1.7-0.5c-1.2-0.6-0.5-1.2-0.1-1.6c0.5-0.3,1.1-0.1,1.6-0.6C44.3,58.7,41,57,39.9,58.7z M53.5,57
		c1.7-1.2,2.4-3.1,1.6-4.4c-0.9-1.3-1.9-1.2-1.9-0.3c0.1,0.9-0.2,4-1.4,3.3s-1.9-1.9-1-2.6c0.9-0.8,1.6-0.5,0.7-1.6
		c-0.5-0.6-1.6-0.2-2.2,0.9c-0.6,1.2-1.4,2-0.2,3.7C50.2,57.7,51.8,58.1,53.5,57z M53,66.4c0.2,1.6,1.3,3.3,3.3,3.3
		c1.9,0,4.4-1.6,3.9-3.3c-0.5-1.7-0.9-2.2-1.8-1.9c-0.9,0.3-0.6-2.5-3-1.6C53.9,63.6,52.8,64.7,53,66.4z M57.7,66.2
		c0.9,0.7,0.7,0.7-0.7,1.5s-0.8-0.1-1.8-1c-1-0.9,0.3-2,0.8-2.1C57,64.3,56.7,65.5,57.7,66.2z M65.3,65.7c2.8-0.4,2.9-3.1,2.6-3.9
		c-0.2-0.8-1.5-2-2.6-1c-1.2,1-0.1,1.2,0.8,1.7c0.9,0.5-0.4,1-1.3,1c-0.9,0-1.2-0.6-1.4-1.3c-0.2-0.7,1.4-1.2,1.6-2.1
		c0.6-2.2-2-1.2-3.5,1.3C60.1,63.9,62.5,66,65.3,65.7z"/>
</g>
</svg>
