<?xml version="1.0" encoding="utf-8"?>
<!-- Generator: Adobe Illustrator 20.1.0, SVG Export Plug-In . SVG Version: 6.00 Build 0)  -->
<svg version="1.1" id="Capa_1" xmlns="http://www.w3.org/2000/svg" xmlns:xlink="http://www.w3.org/1999/xlink" x="0px" y="0px"
	 viewBox="0 0 50 50" style="enable-background:new 0 0 50 50;" xml:space="preserve">
<style type="text/css">
	.st0{fill:#FFFFFF;}
	.st1{fill:none;}
</style>
<g>
	<path class="st0" d="M16,35c-0.3,0-0.5-0.1-0.7-0.3c-0.4-0.4-0.4-1,0-1.4l18-18c0.4-0.4,1-0.4,1.4,0s0.4,1,0,1.4l-18,18
		C16.5,34.9,16.3,35,16,35z"/>
</g>
<g>
	<path class="st0" d="M34,35c-0.3,0-0.5-0.1-0.7-0.3l-18-18c-0.4-0.4-0.4-1,0-1.4s1-0.4,1.4,0l18,18c0.4,0.4,0.4,1,0,1.4
		C34.5,34.9,34.3,35,34,35z"/>
</g>
<g>
	<rect class="st1" width="50" height="50"/>
</g>
</svg>
