<?xml version="1.0" encoding="utf-8"?>
<!-- Generator: Adobe Illustrator 20.1.0, SVG Export Plug-In . SVG Version: 6.00 Build 0)  -->
<svg version="1.1" id="Capa_1" xmlns="http://www.w3.org/2000/svg" xmlns:xlink="http://www.w3.org/1999/xlink" x="0px" y="0px"
	 viewBox="0 0 50 50" style="enable-background:new 0 0 50 50;" xml:space="preserve">
<style type="text/css">
	.st0{fill:#FFFFFF;}
	.st1{fill:none;}
</style>
<g>
	<path class="st0" d="M25,40c-0.6,0-1-0.4-1-1v-2c0-0.6,0.4-1,1-1s1,0.4,1,1v2C26,39.6,25.6,40,25,40z"/>
</g>
<g>
	<path class="st0" d="M25,33c-0.6,0-1-0.4-1-1v-2.8c0-3.4,1.6-6.4,4.2-8.1c1.8-1.1,2.8-3,2.8-5.1c0-3.2-2.8-5.9-5.9-5.9
		c-1.6,0-3.1,0.6-4.3,1.7C19.6,12.9,19,14.4,19,16c0,0.6-0.4,1-1,1s-1-0.4-1-1c0-2.2,0.8-4.2,2.4-5.7C20.9,8.8,23,8,25.1,8
		c4.3,0.1,7.8,3.6,7.9,7.9c0,2.8-1.3,5.3-3.7,6.8c-2.1,1.3-3.3,3.8-3.3,6.4V32C26,32.6,25.6,33,25,33z"/>
</g>
<g>
	<rect x="0" class="st1" width="50" height="50"/>
</g>
</svg>
